<?xml version="1.0" encoding="UTF-8"?>
<svg version="1.1" xmlns="http://www.w3.org/2000/svg" width="1024" height="1024">
<path d="M0 0 C337.92 0 675.84 0 1024 0 C1024 337.92 1024 675.84 1024 1024 C686.08 1024 348.16 1024 0 1024 C0 686.08 0 348.16 0 0 Z " fill="#FDFEFE" transform="translate(0,0)"/>
<path d="M0 0 C22.68157651 2.0619615 42.03012407 10.16567194 57 28 C70.4520721 45.9935606 75.63004725 64.80463202 75.53344727 86.9465332 C75.54052602 88.68159715 75.54927914 90.41665493 75.55955505 92.15170288 C75.58184237 96.81520888 75.57915783 101.47837219 75.57023358 106.14191079 C75.56508124 110.05782285 75.57245055 113.97367287 75.57970566 117.88957852 C75.59663991 127.13990239 75.5932054 136.39006105 75.57641602 145.64038086 C75.55950888 155.13240903 75.57532473 164.6239768 75.6076389 174.1159547 C75.63446994 182.31271902 75.64157433 190.50934122 75.63312382 198.70614499 C75.62823285 203.58090164 75.63019942 208.45538183 75.65091133 213.33010292 C75.66948198 217.91956085 75.66305354 222.50836536 75.63871193 227.09778976 C75.63377059 228.76526642 75.63701581 230.43279476 75.64986038 232.10022926 C75.80490617 253.98873271 69.92934252 274.49914774 55 291 C54.33484375 291.75796875 53.6696875 292.5159375 52.984375 293.296875 C41.72122491 305.39433251 25.33185711 314.18416257 9 317 C6.03 317 3.06 317 0 317 C0 305.78 0 294.56 0 283 C3.96 282.01 7.92 281.02 12 280 C17.61184963 277.51293028 21.90804329 275.6034513 26 271 C26.66 271 27.32 271 28 271 C28.226875 270.484375 28.45375 269.96875 28.6875 269.4375 C30 267 30 267 32.375 263.9375 C38.08835845 256.11121313 40.11074083 246.56572726 40.15390015 237.05253601 C40.1582824 236.36534904 40.16266465 235.67816207 40.1671797 234.97015125 C40.18050475 232.67370145 40.18673248 230.37728998 40.19287109 228.08081055 C40.20077743 226.43117604 40.20904671 224.78154324 40.21765137 223.13191223 C40.24382394 217.71686442 40.25918062 212.3018091 40.2734375 206.88671875 C40.27880034 205.01704212 40.28417785 203.14736553 40.28956985 201.27768898 C40.31119725 193.49266446 40.32992872 185.70764197 40.34119225 177.92259502 C40.357396 166.79886901 40.39048827 155.67549422 40.44759309 144.55190057 C40.48644507 136.71382271 40.50584327 128.87583816 40.51111281 121.03766662 C40.51474725 116.36567154 40.52656256 111.69405146 40.55921555 107.02216148 C40.58956359 102.61677011 40.59551416 98.21197535 40.58383179 93.80650139 C40.58361322 92.20225027 40.59173497 90.5979693 40.60948563 88.99381638 C40.76405964 74.20196112 38.42729019 59.30493786 28 48 C19.33217697 39.92564954 11.85588872 37.15561613 0 35 C0 23.45 0 11.9 0 0 Z " fill="#265689" transform="translate(392,352)"/>
<path d="M0 0 C0 11.22 0 22.44 0 34 C-7.92 36.475 -7.92 36.475 -16 39 C-27.2522257 45.18872413 -34.99934044 54.42034503 -38.85188293 66.71965027 C-41.26027121 76.24117736 -41.47500452 85.36217443 -41.51171875 95.11328125 C-41.52860397 96.82107297 -41.54675923 98.52885255 -41.56611633 100.23661804 C-41.61320591 104.6866781 -41.64327876 109.13668896 -41.66955566 113.58691406 C-41.6995707 118.14593217 -41.74602789 122.70478128 -41.79101562 127.26367188 C-41.87658046 136.17569209 -41.94413148 145.08774753 -42 154 C-46.10063522 152.67553649 -49.69750724 151.20821801 -53.44140625 149.06640625 C-54.43720703 148.49986328 -55.43300781 147.93332031 -56.45898438 147.34960938 C-57.48314453 146.75986328 -58.50730469 146.17011719 -59.5625 145.5625 C-61.10454102 144.68368164 -61.10454102 144.68368164 -62.67773438 143.78710938 C-65.45710043 142.20018682 -68.23315658 140.60865421 -71 139 C-71.86527313 138.59854263 -72.73054626 138.19708527 -73.62203979 137.78346252 C-76 136 -76 136 -76.62818909 133.28598022 C-76.62915085 132.18919952 -76.63011261 131.09241882 -76.63110352 129.96240234 C-76.64363663 128.71615082 -76.65616974 127.46989929 -76.66908264 126.18588257 C-76.65679588 124.81922383 -76.64337312 123.4525749 -76.62890625 122.0859375 C-76.62973601 120.67363299 -76.63219942 119.26132859 -76.63621521 117.84902954 C-76.63907855 114.87790073 -76.62434821 111.90752323 -76.59692383 108.93652344 C-76.56326924 105.17856209 -76.56908801 101.42196873 -76.58704853 97.6639452 C-76.7304551 61.03066977 -76.7304551 61.03066977 -68.1875 45.5625 C-67.83985596 44.90548096 -67.49221191 44.24846191 -67.1340332 43.5715332 C-56.39765268 23.67657243 -39.65797039 8.93881274 -17.96875 2.03515625 C-11.51742214 0.26755758 -7.0003016 0 0 0 Z " fill="#47B8B2" transform="translate(624,352)"/>
<path d="M0 0 C0.00142502 0.90851715 0.00285004 1.8170343 0.00431824 2.75308228 C0.02224942 11.37263379 0.06416001 19.99167867 0.13209057 28.61098671 C0.16618215 33.04085502 0.1914425 37.470385 0.19555664 41.90039062 C0.19987827 46.18661628 0.22865578 50.47208104 0.27343178 54.75806808 C0.28628466 56.3820284 0.2907585 58.00608035 0.28615379 59.63008499 C0.25296192 74.9102812 3.00730716 87.78248984 14.03125 99.08203125 C22.39908751 107.02263762 29.62855047 109.72571009 41 112 C41 123.22 41 134.44 41 146 C20.47852706 146 2.49879195 136.52338791 -12.125 122.375 C-21.00634912 113.43874953 -26.74779765 102.81648828 -31 91 C-31.34893311 90.04971924 -31.69786621 89.09943848 -32.05737305 88.12036133 C-35.84446083 76.10624586 -35.91817016 63.89643095 -36.01586914 51.38208008 C-36.06273621 47.54315149 -36.20014373 43.7135588 -36.33789062 39.87695312 C-36.67363185 22.6879849 -36.67363185 22.6879849 -33.84133911 18.13909912 C-30.49212895 14.84538027 -26.35032305 13.50626288 -22 12 C-20.11325815 10.91288862 -18.25216535 9.77946796 -16.42578125 8.59375 C-14.7217768 7.56180181 -13.01735746 6.53053835 -11.3125 5.5 C-10.43400391 4.96375 -9.55550781 4.4275 -8.65039062 3.875 C-7.81314453 3.3696875 -6.97589844 2.864375 -6.11328125 2.34375 C-5.36860596 1.89193359 -4.62393066 1.44011719 -3.85668945 0.97460938 C-2 0 -2 0 0 0 Z " fill="#49B8B3" transform="translate(583,523)"/>
<path d="M0 0 C4.39866246 1.75946498 8.43972167 3.76634021 12.5625 6.0625 C13.33062012 6.48950195 14.09874023 6.91650391 14.89013672 7.35644531 C23.45481902 12.17397506 31.8238268 17.31455595 40.20629883 22.43945312 C51.70551275 29.46450055 63.32975913 36.26255806 75 43 C73.65903112 47.02290664 71.97383496 47.43275639 68.3046875 49.4765625 C67.72553589 49.80289169 67.14638428 50.12922089 66.54968262 50.46543884 C64.66257789 51.52680147 62.76880959 52.57565638 60.875 53.625 C58.92183673 54.7207759 56.97059049 55.81991132 55.0194397 56.91926575 C53.73923694 57.64033714 52.4584573 58.36038531 51.17709351 59.07939148 C46.86235004 61.50232643 42.60181497 63.98987079 38.375 66.5625 C32.01301675 70.41870211 25.59481532 74.17537212 19.15753174 77.90426636 C17.41020106 78.91709592 15.6647964 79.93324593 13.91943359 80.94946289 C12.84000488 81.57328857 11.76057617 82.19711426 10.6484375 82.83984375 C9.68083496 83.40050537 8.71323242 83.96116699 7.71630859 84.53881836 C5 86 5 86 0 88 C0 58.96 0 29.92 0 0 Z " fill="#26578A" transform="translate(485,471)"/>
<path d="M0 0 C1.7977878 1.33251525 3.54773237 2.72941482 5.28125 4.14453125 C4.07743552 6.63814696 2.82696278 8.82596208 1.28125 11.14453125 C-2.17658555 9.8728229 -5.0248855 8.3910243 -8.03125 6.26953125 C-21.82686249 -3.07956151 -35.4612898 -4.79277476 -51.96875 -1.73046875 C-61.14797311 0.4708834 -68.79535547 4.78249303 -75.71875 11.14453125 C-78.58572492 9.8593356 -80.69482712 8.57323871 -82.71875 6.14453125 C-82.71875 5.48453125 -82.71875 4.82453125 -82.71875 4.14453125 C-80.8131002 2.60243944 -78.92834386 1.20698737 -76.90625 -0.16796875 C-76.31457031 -0.57096191 -75.72289062 -0.97395508 -75.11328125 -1.38916016 C-50.9795274 -17.46322421 -23.51976205 -16.05156174 0 0 Z " fill="#B1B6B8" transform="translate(547.71875,329.85546875)"/>
<path d="M0 0 C4.12182563 2.87873536 4.12182563 2.87873536 5.65234375 4.546875 C5.65234375 8.546875 5.65234375 8.546875 4.40234375 10.359375 C2.65234375 11.546875 2.65234375 11.546875 0.84375 11.3046875 C-1.77204939 10.40011516 -3.83401343 9.10763077 -6.16015625 7.609375 C-15.1707991 2.15590901 -24.65287597 1.0190708 -35.04296875 3.08203125 C-40.59762574 4.80491638 -45.21437811 7.41359686 -49.34765625 11.546875 C-52.34765625 11.546875 -52.34765625 11.546875 -54.59765625 9.796875 C-56.34765625 7.546875 -56.34765625 7.546875 -56.20703125 5.59375 C-53.74247786 -0.27636807 -44.92186754 -3.3036021 -39.390625 -5.69140625 C-26.30940894 -10.5687239 -11.53636374 -7.14064444 0 0 Z " fill="#B1B5B8" transform="translate(534.34765625,342.453125)"/>
<path d="M0 0 C1.8958694 1.56731124 3.38697874 3.12681402 5 5 C3.68 6.65 2.36 8.3 1 10 C-1.93026738 9.38412522 -4.16420977 8.42806916 -6.75 6.9375 C-10.93128445 4.82362842 -14.36781301 4.06818676 -19 5 C-21.18430572 5.90980059 -23.19581447 6.93183482 -25.23828125 8.125 C-27 9 -27 9 -30 9 C-32.1875 7 -32.1875 7 -34 5 C-32.63166868 0.89500604 -30.71196951 0.13094546 -27 -2 C-17.86288187 -5.58318358 -8.3542642 -5.24024989 0 0 Z " fill="#B0B5B7" transform="translate(524,357)"/>
<path d="M0 0 C3.80470451 0.7133821 5.41196019 1.67868421 8 4.5625 C8.92995212 8.03432124 9.34268246 10.40984082 8.3125 13.875 C5.96984155 16.88698943 3.76270254 17.43267829 0.0625 18.0625 C-3 17.5625 -3 17.5625 -5.875 14.9375 C-8.19483097 11.25306258 -8.90140975 9.79912583 -8 5.5625 C-5.53959272 2.23371368 -4.10389613 0.76948052 0 0 Z " fill="#AFB6B9" transform="translate(509,369.4375)"/>
</svg>
